<?xml version="1.0" encoding="UTF-8" standalone="no"?><!DOCTYPE svg PUBLIC "-//W3C//DTD SVG 1.1//EN" "http://www.w3.org/Graphics/SVG/1.1/DTD/svg11.dtd"><svg width="100%" height="100%" viewBox="0 0 63 63" version="1.1" xmlns="http://www.w3.org/2000/svg" xmlns:xlink="http://www.w3.org/1999/xlink" xml:space="preserve" xmlns:serif="http://www.serif.com/" style="fill-rule:evenodd;clip-rule:evenodd;stroke-linejoin:round;stroke-miterlimit:2;"><rect id="ic_info" x="0" y="0" width="62.5" height="62.5" style="fill:none;"/><text x="23.102px" y="48.811px" style="font-family:'Georgia-Bold', 'Georgia', serif;font-weight:700;font-size:46.465px;">i</text><path d="M31.292,2.083c16.097,0 29.166,13.069 29.166,29.166c-0,16.098 -13.069,29.166 -29.166,29.166c-16.098,0 -29.166,-13.068 -29.166,-29.166c-0,-16.097 13.068,-29.166 29.166,-29.166Zm-0,4.419c13.658,0 24.747,11.089 24.747,24.747c-0,13.659 -11.089,24.747 -24.747,24.747c-13.659,0 -24.747,-11.088 -24.747,-24.747c-0,-13.658 11.088,-24.747 24.747,-24.747Z"/></svg>